<svg xmlns="http://www.w3.org/2000/svg" xmlns:xlink="http://www.w3.org/1999/xlink" width="100" zoomAndPan="magnify" viewBox="0 0 75 37.5" height="50" preserveAspectRatio="xMidYMid meet" version="1.0"><path fill="#ffffff" d="M 38.320312 33.550781 L 38.292969 33.550781 C 37.777344 33.628906 37.269531 33.425781 36.9375 33.039062 L 24.199219 18.015625 L 9.667969 26.273438 C 9.019531 26.632812 8.21875 26.476562 7.753906 25.890625 C 7.292969 25.300781 7.328125 24.480469 7.835938 23.941406 L 22.230469 8.585938 C 22.511719 8.308594 22.902344 8.125 23.3125 8.125 C 23.722656 8.125 24.121094 8.28125 24.40625 8.585938 L 36.84375 21.535156 L 44.390625 4.332031 C 44.5625 3.949219 44.90625 3.640625 45.324219 3.515625 C 45.742188 3.386719 46.199219 3.4375 46.570312 3.671875 L 67.417969 17 C 68.058594 17.410156 68.289062 18.253906 67.957031 18.921875 C 67.617188 19.617188 66.824219 19.921875 66.105469 19.664062 L 48.011719 13.222656 L 39.449219 32.679688 C 39.246094 33.144531 38.824219 33.476562 38.320312 33.550781 " fill-opacity="1" fill-rule="nonzero"/></svg>